<svg 
 xmlns="http://www.w3.org/2000/svg"
 xmlns:xlink="http://www.w3.org/1999/xlink"
 width="96px" height="74px">
<path fill-rule="evenodd"  fill="rgb(0, 0, 0)"
 d="M62.623,18.724 L30.363,18.724 C29.693,18.724 29.246,18.276 29.246,17.603 C29.246,16.930 29.693,16.482 30.363,16.482 L62.623,16.482 C63.293,16.482 63.739,16.930 63.739,17.603 C63.739,18.276 63.293,18.724 62.623,18.724 Z"/>
<path fill-rule="evenodd"  fill="rgb(0, 0, 0)"
 d="M50.344,22.873 L30.363,22.873 C29.693,22.873 29.246,22.424 29.246,21.751 C29.246,21.079 29.693,20.630 30.363,20.630 L50.232,20.630 C50.902,20.630 51.348,21.079 51.348,21.751 C51.348,22.424 51.014,22.873 50.344,22.873 Z"/>
<path fill-rule="evenodd"  fill="rgb(0, 0, 0)"
 d="M55.590,36.327 L42.753,36.327 C42.083,36.327 41.637,35.879 41.637,35.206 C41.637,34.533 42.083,34.085 42.753,34.085 L55.702,34.085 C56.372,34.085 56.818,34.533 56.818,35.206 C56.818,35.879 56.260,36.327 55.590,36.327 Z"/>
<path fill-rule="evenodd"  fill="rgb(0, 0, 0)"
 d="M50.902,39.915 L42.642,39.915 C41.972,39.915 41.525,39.467 41.525,38.794 C41.525,38.121 41.972,37.673 42.642,37.673 L50.902,37.673 C51.572,37.673 52.018,38.121 52.018,38.794 C52.018,39.467 51.572,39.915 50.902,39.915 Z"/>
<path fill-rule="evenodd"  fill="rgb(0, 0, 0)"
 d="M34.381,41.821 C31.479,41.821 29.135,39.467 29.135,36.551 C29.135,33.636 31.479,31.282 34.381,31.282 C37.283,31.282 39.628,33.636 39.628,36.551 C39.628,39.467 37.283,41.821 34.381,41.821 ZM34.381,33.524 C32.707,33.524 31.367,34.870 31.367,36.551 C31.367,38.233 32.707,39.579 34.381,39.579 C36.055,39.579 37.395,38.233 37.395,36.551 C37.395,34.870 36.055,33.524 34.381,33.524 Z"/>
<path fill-rule="evenodd"  fill="rgb(0, 0, 0)"
 d="M55.590,51.015 L42.753,51.015 C42.083,51.015 41.637,50.567 41.637,49.894 C41.637,49.221 42.083,48.773 42.753,48.773 L55.702,48.773 C56.372,48.773 56.818,49.221 56.818,49.894 C56.818,50.567 56.260,51.015 55.590,51.015 Z"/>
<path fill-rule="evenodd"  fill="rgb(0, 0, 0)"
 d="M50.902,54.603 L42.642,54.603 C41.972,54.603 41.525,54.154 41.525,53.482 C41.525,52.809 41.972,52.360 42.642,52.360 L50.902,52.360 C51.572,52.360 52.018,52.809 52.018,53.482 C52.018,54.154 51.572,54.603 50.902,54.603 Z"/>
<path fill-rule="evenodd"  fill="rgb(0, 0, 0)"
 d="M34.381,56.509 C31.479,56.509 29.135,54.154 29.135,51.239 C29.135,48.324 31.479,45.970 34.381,45.970 C37.283,45.970 39.628,48.324 39.628,51.239 C39.628,54.154 37.283,56.509 34.381,56.509 ZM34.381,48.324 C32.707,48.324 31.367,49.670 31.367,51.351 C31.367,53.033 32.707,54.379 34.381,54.379 C36.055,54.379 37.395,53.033 37.395,51.351 C37.395,49.670 36.055,48.324 34.381,48.324 Z"/>
<path fill-rule="evenodd"  fill="rgb(0, 0, 0)"
 d="M88.409,36.327 L75.572,36.327 C74.902,36.327 74.456,35.879 74.456,35.206 C74.456,34.533 74.902,34.085 75.572,34.085 L88.409,34.085 C89.079,34.085 89.525,34.533 89.525,35.206 C89.525,35.879 89.079,36.327 88.409,36.327 Z"/>
<path fill-rule="evenodd"  fill="rgb(0, 0, 0)"
 d="M83.721,39.915 L75.460,39.915 C74.790,39.915 74.344,39.467 74.344,38.794 C74.344,38.121 74.790,37.673 75.460,37.673 L83.721,37.673 C84.390,37.673 84.837,38.121 84.837,38.794 C84.837,39.467 84.390,39.915 83.721,39.915 Z"/>
<path fill-rule="evenodd"  fill="rgb(0, 0, 0)"
 d="M67.200,41.821 C64.298,41.821 61.953,39.467 61.953,36.551 C61.953,33.636 64.298,31.282 67.200,31.282 C70.102,31.282 72.446,33.636 72.446,36.551 C72.446,39.467 70.102,41.821 67.200,41.821 ZM67.200,33.524 C65.525,33.524 64.186,34.870 64.186,36.551 C64.186,38.233 65.525,39.579 67.200,39.579 C68.874,39.579 70.214,38.233 70.214,36.551 C70.214,34.870 68.874,33.524 67.200,33.524 Z"/>
<path fill-rule="evenodd"  fill="rgb(0, 0, 0)"
 d="M88.409,51.015 L75.572,51.015 C74.902,51.015 74.456,50.567 74.456,49.894 C74.456,49.221 74.902,48.773 75.572,48.773 L88.409,48.773 C89.079,48.773 89.525,49.221 89.525,49.894 C89.525,50.567 89.079,51.015 88.409,51.015 Z"/>
<path fill-rule="evenodd"  fill="rgb(0, 0, 0)"
 d="M83.721,54.603 L75.460,54.603 C74.790,54.603 74.344,54.154 74.344,53.482 C74.344,52.809 74.790,52.360 75.460,52.360 L83.721,52.360 C84.390,52.360 84.837,52.809 84.837,53.482 C84.837,54.154 84.390,54.603 83.721,54.603 Z"/>
<path fill-rule="evenodd"  fill="rgb(0, 0, 0)"
 d="M67.200,56.509 C64.298,56.509 61.953,54.154 61.953,51.239 C61.953,48.324 64.298,45.970 67.200,45.970 C70.102,45.970 72.446,48.324 72.446,51.239 C72.446,54.154 70.102,56.509 67.200,56.509 ZM67.200,48.324 C65.525,48.324 64.186,49.670 64.186,51.351 C64.186,53.033 65.525,54.379 67.200,54.379 C68.874,54.379 70.214,53.033 70.214,51.351 C70.214,49.670 68.874,48.324 67.200,48.324 Z"/>
<path fill-rule="evenodd"  fill="rgb(0, 0, 0)"
 d="M92.651,73.439 L3.348,73.439 C1.451,73.439 -0.000,71.982 -0.000,70.076 L-0.000,3.924 C-0.000,2.018 1.451,0.560 3.348,0.560 L92.651,0.560 C94.549,0.560 96.000,2.018 96.000,3.924 L96.000,70.076 C96.000,71.982 94.549,73.439 92.651,73.439 ZM93.767,3.924 C93.767,3.251 93.321,2.803 92.651,2.803 L3.348,2.803 C2.679,2.803 2.232,3.251 2.232,3.924 L2.232,70.076 C2.232,70.748 2.679,71.197 3.348,71.197 L92.651,71.197 C93.321,71.197 93.767,70.748 93.767,70.076 L93.767,3.924 Z"/>
<path fill-rule="evenodd"  fill="rgb(0, 0, 0)"
 d="M94.884,11.660 L1.674,11.660 C1.005,11.660 0.558,11.212 0.558,10.539 C0.558,9.866 1.005,9.418 1.674,9.418 L94.884,9.418 C95.553,9.418 96.000,9.866 96.000,10.539 C96.000,11.212 95.553,11.660 94.884,11.660 Z"/>
<path fill-rule="evenodd"  fill="rgb(0, 0, 0)"
 d="M6.362,7.400 C7.164,7.400 7.814,6.747 7.814,5.942 C7.814,5.137 7.164,4.485 6.362,4.485 C5.561,4.485 4.911,5.137 4.911,5.942 C4.911,6.747 5.561,7.400 6.362,7.400 Z"/>
<path fill-rule="evenodd"  fill="rgb(0, 0, 0)"
 d="M11.609,7.400 C12.411,7.400 13.060,6.747 13.060,5.942 C13.060,5.137 12.411,4.485 11.609,4.485 C10.808,4.485 10.158,5.137 10.158,5.942 C10.158,6.747 10.808,7.400 11.609,7.400 Z"/>
<path fill-rule="evenodd"  fill="rgb(0, 0, 0)"
 d="M16.856,7.400 C17.657,7.400 18.307,6.747 18.307,5.942 C18.307,5.137 17.657,4.485 16.856,4.485 C16.054,4.485 15.404,5.137 15.404,5.942 C15.404,6.747 16.054,7.400 16.856,7.400 Z"/>
<path fill-rule="evenodd"  fill="rgb(0, 0, 0)"
 d="M16.298,33.973 L5.804,33.973 C5.135,33.973 4.688,33.524 4.688,32.851 C4.688,32.179 5.135,31.730 5.804,31.730 L16.298,31.730 C16.967,31.730 17.414,32.179 17.414,32.851 C17.414,33.524 16.967,33.973 16.298,33.973 Z"/>
<path fill-rule="evenodd"  fill="rgb(0, 0, 0)"
 d="M20.428,39.242 L5.804,39.242 C5.135,39.242 4.688,38.794 4.688,38.121 C4.688,37.448 5.135,37.000 5.804,37.000 L20.428,37.000 C21.097,37.000 21.544,37.448 21.544,38.121 C21.544,38.794 21.097,39.242 20.428,39.242 Z"/>
<path fill-rule="evenodd"  fill="rgb(0, 0, 0)"
 d="M17.525,44.624 L5.804,44.624 C5.135,44.624 4.688,44.176 4.688,43.503 C4.688,42.830 5.135,42.382 5.804,42.382 L17.525,42.382 C18.195,42.382 18.641,42.830 18.641,43.503 C18.641,44.176 18.195,44.624 17.525,44.624 Z"/>
<path fill-rule="evenodd"  fill="rgb(0, 0, 0)"
 d="M14.623,49.894 L5.804,49.894 C5.135,49.894 4.688,49.445 4.688,48.773 C4.688,48.100 5.135,47.651 5.804,47.651 L14.623,47.651 C15.293,47.651 15.739,48.100 15.739,48.773 C15.739,49.445 15.181,49.894 14.623,49.894 Z"/>
<path fill-rule="evenodd"  fill="rgb(0, 0, 0)"
 d="M17.525,55.163 L5.804,55.163 C5.135,55.163 4.688,54.715 4.688,54.042 C4.688,53.370 5.135,52.921 5.804,52.921 L17.525,52.921 C18.195,52.921 18.641,53.370 18.641,54.042 C18.641,54.715 18.195,55.163 17.525,55.163 Z"/>
<path fill-rule="evenodd"  fill="rgb(0, 0, 0)"
 d="M9.935,26.461 C7.032,26.461 4.688,24.106 4.688,21.191 C4.688,18.276 7.032,15.921 9.935,15.921 C12.837,15.921 15.181,18.276 15.181,21.191 C15.070,24.106 12.837,26.461 9.935,26.461 ZM9.935,18.276 C8.260,18.276 6.921,19.621 6.921,21.303 C6.921,22.985 8.260,24.330 9.935,24.330 C11.609,24.330 12.949,22.985 12.949,21.303 C12.949,19.621 11.609,18.276 9.935,18.276 Z"/>
<path fill-rule="evenodd"  fill="rgb(0, 0, 0)"
 d="M24.000,72.879 C23.330,72.879 22.883,72.430 22.883,71.757 L22.883,10.539 C22.883,9.866 23.330,9.418 24.000,9.418 C24.669,9.418 25.116,9.866 25.116,10.539 L25.116,71.757 C25.116,72.318 24.558,72.879 24.000,72.879 Z"/>
</svg>