<svg 
 xmlns="http://www.w3.org/2000/svg"
 xmlns:xlink="http://www.w3.org/1999/xlink"
 width="91px" height="46px">
<path fill-rule="evenodd"  fill="rgb(0, 0, 0)"
 d="M70.195,45.960 C69.576,45.960 68.954,45.750 68.445,45.320 C67.299,44.353 67.154,42.639 68.121,41.493 L83.730,23.000 L68.122,4.507 C67.155,3.361 67.300,1.648 68.446,0.680 C69.592,-0.288 71.305,-0.143 72.273,1.003 L89.360,21.248 C90.214,22.260 90.214,23.740 89.360,24.751 L72.272,44.995 C71.735,45.632 70.968,45.960 70.195,45.960 Z"/>
<path fill-rule="evenodd"  fill="rgb(0, 0, 0)"
 d="M19.805,45.960 C19.033,45.960 18.266,45.632 17.729,44.996 L0.641,24.752 C-0.213,23.740 -0.213,22.260 0.641,21.249 L17.729,1.004 C18.696,-0.142 20.410,-0.287 21.556,0.680 C22.702,1.647 22.847,3.361 21.880,4.507 L6.269,23.001 L21.878,41.493 C22.845,42.639 22.701,44.352 21.555,45.320 C21.045,45.749 20.423,45.960 19.805,45.960 Z"/>
<path fill-rule="evenodd"  fill="rgb(0, 0, 0)"
 d="M32.325,45.960 C31.833,45.960 31.335,45.826 30.887,45.546 C29.616,44.750 29.230,43.075 30.026,41.804 L55.370,1.315 C56.166,0.044 57.842,-0.341 59.113,0.454 C60.384,1.250 60.770,2.925 59.974,4.196 L34.630,44.685 C34.115,45.508 33.230,45.960 32.325,45.960 Z"/>
</svg>