<svg 
 xmlns="http://www.w3.org/2000/svg"
 xmlns:xlink="http://www.w3.org/1999/xlink"
 width="119.6px" height="84.6px">
<path fill-rule="evenodd"  stroke="rgb(0, 0, 0)" stroke-width="2.4px" stroke-linecap="round" stroke-linejoin="miter" opacity="0.796" fill="none"
 d="M39.600,8.418 L59.600,8.418 C61.369,8.418 62.800,9.848 62.800,11.618 L62.800,79.000 C62.800,80.769 61.369,82.200 59.600,82.200 L39.600,82.200 C37.830,82.200 36.400,80.769 36.400,79.000 L36.400,11.618 C36.400,9.848 37.830,8.418 39.600,8.418 Z"/>
<path fill-rule="evenodd"  fill="rgb(0, 0, 0)"
 d="M26.000,77.388 L72.400,77.388 C72.842,77.388 73.200,77.746 73.200,78.188 L73.200,81.400 C73.200,81.842 72.842,82.200 72.400,82.200 L26.000,82.200 C25.557,82.200 25.200,81.842 25.200,81.400 L25.200,78.188 C25.200,77.746 25.557,77.388 26.000,77.388 Z"/>
<path fill-rule="evenodd"  stroke="rgb(0, 0, 0)" stroke-width="2.4px" stroke-linecap="round" stroke-linejoin="miter" fill="rgb(255, 255, 255)"
 d="M4.400,1.200 L94.000,1.200 C95.769,1.200 97.200,2.630 97.200,4.400 L97.200,64.564 C97.200,66.334 95.769,67.764 94.000,67.764 L4.400,67.764 C2.630,67.764 1.200,66.334 1.200,64.564 L1.200,4.400 C1.200,2.630 2.630,1.200 4.400,1.200 Z"/>
<path fill-rule="evenodd"  stroke="rgb(0, 0, 0)" stroke-width="2.4px" stroke-linecap="round" stroke-linejoin="miter" fill="rgb(255, 255, 255)"
 d="M80.400,23.655 L114.000,23.655 C115.769,23.655 117.200,25.086 117.200,26.855 L117.200,79.000 C117.200,80.769 115.769,82.200 114.000,82.200 L80.400,82.200 C78.630,82.200 77.200,80.769 77.200,79.000 L77.200,26.855 C77.200,25.086 78.630,23.655 80.400,23.655 Z"/>
<path fill-rule="evenodd"  stroke="rgb(0, 0, 0)" stroke-width="0.8px" stroke-linecap="round" stroke-linejoin="miter" fill="none"
 d="M79.200,32.878 L116.808,32.878 "/>
<path fill-rule="evenodd"  stroke="rgb(0, 0, 0)" stroke-width="0.8px" stroke-linecap="round" stroke-linejoin="miter" fill="rgb(255, 255, 255)"
 d="M97.200,76.586 C98.967,76.586 100.400,75.150 100.400,73.378 C100.400,71.606 98.967,70.170 97.200,70.170 C95.432,70.170 94.000,71.606 94.000,73.378 C94.000,75.150 95.432,76.586 97.200,76.586 Z"/>
</svg>